<?xml version="1.0" encoding="UTF-8"?>
<svg width="48px" height="48px" viewBox="0 0 48 48" version="1.1" xmlns="http://www.w3.org/2000/svg" xmlns:xlink="http://www.w3.org/1999/xlink">
    <!-- Generator: Sketch 59.1 (86144) - https://sketch.com -->
    <title>close-btn</title>
    <desc>Created with Sketch.</desc>
    <g id="close-btn" stroke="none" stroke-width="1" fill="none" fill-rule="evenodd">
        <g id="wrapper">
            <rect x="0" y="0" width="48" height="48"></rect>
        </g>
        <path d="M28.5490556,24 L35.3719957,17.1770455 C36.2093348,16.3397727 36.2093348,14.9822727 35.3719957,14.1443182 L33.8556353,12.6279545 C33.0183643,11.7906818 31.6609354,11.7906818 30.8229826,12.6279545 L23.9999744,19.4509091 L17.1770344,12.6279545 C16.3397635,11.7906818 14.9823346,11.7906818 14.1443136,12.6279545 L12.6279532,14.1443182 C11.7906823,14.9815909 11.7906823,16.3390909 12.6279532,17.1770455 L19.4508932,24 L12.6279532,30.8229545 C11.7906823,31.6602273 11.7906823,33.0177273 12.6279532,33.8556818 L14.1443136,35.3720455 C14.9815846,36.2093182 16.3397635,36.2093182 17.1770344,35.3720455 L23.9999744,28.5490909 L30.8229826,35.3720455 C31.6601854,36.2093182 33.0183643,36.2093182 33.8556353,35.3720455 L35.3719957,33.8556818 C36.2093348,33.0184091 36.2093348,31.6609091 35.3719957,30.8229545 L28.5490556,24 Z" id="Fill-1" fill="#22B573"></path>
    </g>
</svg>