<svg xmlns="http://www.w3.org/2000/svg" viewBox="0 0 256 256"><defs><style>.cls-1{fill:none;}.cls-2{fill:#cb9042;}.cls-2,.cls-3{fill-rule:evenodd;}.cls-3{fill:#2e3339;}</style></defs><title>Asset 4</title><g id="Layer_2" data-name="Layer 2"><g id="Layer_1-2" data-name="Layer 1"><rect class="cls-1" width="256" height="256"/><g id="Home"><g id="Desktop-L"><g id="services-s3"><g id="content"><g id="services"><g id="content-2" data-name="content"><g id="content-icon"><path id="Fill-1" class="cls-2" d="M176.75,69.77h-108a6.56,6.56,0,0,1,0-13.11h108a6.56,6.56,0,0,1,0,13.11"/><polygon id="Fill-3" class="cls-2" points="237.55 94.28 152.68 179.15 134.63 185.5 130.24 197.98 160.77 187.24 245.64 102.37 237.55 94.28"/><path id="Fill-5" class="cls-3" d="M198.93,160.44a2.81,2.81,0,0,0-2.8,2.81V222.5h-147V33.71h147v63a2.81,2.81,0,1,0,5.61,0V30.91a2.8,2.8,0,0,0-2.8-2.8H46.36a2.8,2.8,0,0,0-2.8,2.8V225.3a2.8,2.8,0,0,0,2.8,2.81H198.94a2.81,2.81,0,0,0,2.8-2.81V163.25a2.81,2.81,0,0,0-2.81-2.81"/><path id="Fill-7" class="cls-3" d="M97.63,92.65a2.8,2.8,0,0,0-2.8-2.8H64.92a2.81,2.81,0,0,0,0,5.61H94.83a2.8,2.8,0,0,0,2.8-2.81"/><path id="Fill-9" class="cls-3" d="M180.44,89.85H108.28a2.81,2.81,0,0,0,0,5.61h72.16a2.81,2.81,0,0,0,0-5.61"/><path id="Fill-11" class="cls-3" d="M180.44,108.92H108.28a2.8,2.8,0,0,0,0,5.6h72.16a2.8,2.8,0,1,0,0-5.6"/><g id="Group-15"><path id="Fill-13" class="cls-3" d="M228.64,115.41,212.81,99.58l13-13,15.82,15.83Zm-86.49,57.17,13.49,13.49-20.82,7.33Zm18.62,10.69-15.83-15.82,63.91-63.9,15.82,15.82Zm86.85-82.89L227.84,80.6a2.88,2.88,0,0,0-4,0l-17,17h0L176.49,128h-68.2a2.81,2.81,0,1,0,0,5.61h62.59L139,165.47a2.89,2.89,0,0,0-.38.47l-.07.14a2.81,2.81,0,0,0-.19.39s0,0,0,.05l-10.75,30.53a2.81,2.81,0,0,0,2.65,3.74,2.76,2.76,0,0,0,.93-.16l30.53-10.75.06,0a2.69,2.69,0,0,0,.38-.19l.14-.07a2.89,2.89,0,0,0,.47-.38l67.87-67.87h0l17-17a2.81,2.81,0,0,0,0-4Z"/></g><path id="Fill-16" class="cls-3" d="M99.59,170.16A10.84,10.84,0,0,0,88.77,181v9.3a5.22,5.22,0,0,1-5.22,5.22h-.33A5.23,5.23,0,0,1,78,190.29V181a10.84,10.84,0,0,0-10.82-10.83,2.81,2.81,0,0,0,0,5.61A5.22,5.22,0,0,1,72.4,181v9.3a10.83,10.83,0,0,0,10.82,10.82h.33a10.84,10.84,0,0,0,10.83-10.82V181a5.22,5.22,0,1,1,10.43,0v9.3a10.84,10.84,0,0,0,10.83,10.82,2.8,2.8,0,0,0,0-5.6,5.22,5.22,0,0,1-5.22-5.22V181a10.84,10.84,0,0,0-10.83-10.83"/></g></g></g></g></g></g></g></g></g></svg>