<svg xmlns="http://www.w3.org/2000/svg" viewBox="0 0 256 256"><defs><style>.cls-1{fill:none;}.cls-2{fill:#cb9042;}.cls-2,.cls-3,.cls-4{fill-rule:evenodd;}.cls-3{fill:#2e3339;}.cls-4{fill:#986c31;}</style></defs><title>Asset 2</title><g id="Layer_2" data-name="Layer 2"><g id="Layer_1-2" data-name="Layer 1"><rect class="cls-1" width="256" height="256"/><g id="Home"><g id="Desktop-L"><g id="services-s3"><g id="content"><g id="services"><g id="design"><g id="design-icon"><path id="Fill-1" class="cls-2" d="M143.84,100.56H87.2a2.11,2.11,0,0,1-2.12-2.11V75.39a2.12,2.12,0,0,1,2.12-2.11h56.64A2.13,2.13,0,0,1,146,75.39V98.45a2.13,2.13,0,0,1-2.13,2.11Zm-19-54.83H106.21a2.64,2.64,0,1,1,0-5.28h18.63a2.64,2.64,0,1,1,0,5.28Zm6.53,142.44V179.7h-60v20.12H159.7V188.17Z"/><path id="Fill-3" class="cls-3" d="M134,185.53h59.22V160H134Zm61.88-30.8H131.37a2.65,2.65,0,0,0-2.66,2.64v30.8a2.65,2.65,0,0,0,2.66,2.63H195.9a2.64,2.64,0,0,0,2.65-2.63v-30.8a2.65,2.65,0,0,0-2.65-2.64Zm-92,55.17a2.64,2.64,0,1,0,0,5.27h23.18a2.64,2.64,0,1,0,0-5.27ZM159.7,151a2.65,2.65,0,0,0,2.66-2.63V56.18a2.65,2.65,0,0,0-2.66-2.64H71.35a2.65,2.65,0,0,0-2.66,2.64v59.43a2.66,2.66,0,0,0,5.31,0V58.81h83.05v89.58A2.64,2.64,0,0,0,159.7,151Zm2.66,48.8v-2.4a2.66,2.66,0,0,0-5.3-.23H74V177.3a2.66,2.66,0,0,0-5.31,0v22.52a2.65,2.65,0,0,0,2.66,2.64H159.7a2.65,2.65,0,0,0,2.66-2.64ZM58.52,118.25a2.65,2.65,0,0,0,2.66-2.64V33.27H169.87V148.39a2.66,2.66,0,0,0,5.31,0V30.64A2.65,2.65,0,0,0,172.53,28h-114a2.65,2.65,0,0,0-2.65,2.64v85a2.65,2.65,0,0,0,2.65,2.64Zm114,76.53a2.65,2.65,0,0,0-2.66,2.64v25.31H61.18V177.3a2.66,2.66,0,0,0-5.31,0v48.06A2.65,2.65,0,0,0,58.52,228h114a2.65,2.65,0,0,0,2.65-2.64V197.42a2.65,2.65,0,0,0-2.65-2.64Z"/><path id="Fill-5" class="cls-4" d="M126.55,109.41,136.74,99.3v20.23Zm-3.75,3.73L133,123.25H112.62ZM112.62,95.57H133L122.8,105.69Zm-3.76,3.73L119,109.41l-10.18,10.12Zm30.53-9H106.21a2.65,2.65,0,0,0-2.66,2.64v33a2.65,2.65,0,0,0,2.66,2.64h33.18a2.65,2.65,0,0,0,2.66-2.64V92.94a2.65,2.65,0,0,0-2.66-2.64ZM81,164.12H42.26a2.64,2.64,0,1,0,0,5.27H81a2.64,2.64,0,1,0,0-5.27Zm0-12.92H42.26a2.64,2.64,0,1,0,0,5.27H81a2.64,2.64,0,1,0,0-5.27Zm-38.75-7.65H81a2.64,2.64,0,1,0,0-5.27H42.26a2.64,2.64,0,1,0,0,5.27Zm0-12.91H75.7a2.64,2.64,0,1,0,0-5.28H42.26a2.64,2.64,0,1,0,0,5.28Zm173.67,69.63L202.3,186.74l8.17-5.45a1.58,1.58,0,0,0-.51-2.86l-27.83-6.62a1.59,1.59,0,0,0-1.93,1.91l6.66,27.64a1.61,1.61,0,0,0,2.89.51l5.48-8.12,13.63,13.54a1.61,1.61,0,0,0,2.26,0l4.81-4.77a1.58,1.58,0,0,0,0-2.25Z"/></g></g></g></g></g></g></g></g></g></svg>