<svg xmlns="http://www.w3.org/2000/svg" viewBox="0 0 256 256"><defs><style>.cls-1{fill:none;}.cls-2{fill:#cb9042;}.cls-2,.cls-3,.cls-4{fill-rule:evenodd;}.cls-3{fill:#986c31;}.cls-4{fill:#2e3339;}</style></defs><title>Asset 1</title><g id="Layer_2" data-name="Layer 2"><g id="Layer_1-2" data-name="Layer 1"><rect class="cls-1" width="256" height="256"/><g id="Home"><g id="Desktop-L"><g id="services-s3"><g id="content"><g id="services"><g id="development"><g id="development-icon"><path id="Fill-1" class="cls-2" d="M103.58,186.35h48.84V177H103.58Zm67.76-33.28h33.18v-9.79H171.34Zm-119.86,0H84.66v-9.79H51.48Zm86.46,55.41c0,5.43-9.94,17.16-9.94,17.16s-9.94-11.73-9.94-17.16a9.94,9.94,0,0,1,19.88,0Z"/><path id="Fill-3" class="cls-3" d="M128,72a8.85,8.85,0,1,0,8.94,8.85A8.91,8.91,0,0,0,128,72m0,22.4a13.56,13.56,0,1,1,13.7-13.55A13.65,13.65,0,0,1,128,94.41"/><path id="Fill-4" class="cls-4" d="M128,108.93a2.38,2.38,0,0,0-2.38,2.36v41.78a2.38,2.38,0,0,0,4.76,0V111.29a2.38,2.38,0,0,0-2.38-2.36Zm77.65,18-33.18-17.75a2.37,2.37,0,0,0-3.22,1,2.34,2.34,0,0,0,1,3.19l31.93,17.08v20.28h-30.8a2.35,2.35,0,1,0,0,4.7h33.18a2.37,2.37,0,0,0,2.38-2.35V129a2.34,2.34,0,0,0-1.25-2.07Zm-121,23.75H53.86V130.44l31.93-17.08a2.35,2.35,0,0,0,1-3.19,2.38,2.38,0,0,0-3.22-1L50.35,127A2.34,2.34,0,0,0,49.1,129v24a2.37,2.37,0,0,0,2.38,2.36H84.66a2.36,2.36,0,1,0,0-4.71ZM139.89,201c0,4.5-6.68,14.38-11.89,20.91-5.21-6.53-11.9-16.41-11.9-20.91a11.9,11.9,0,0,1,23.79,0Zm12.53-27.56A2.38,2.38,0,0,0,150,175.8V184H106v-8.2a2.38,2.38,0,0,0-4.75,0v10.56a2.36,2.36,0,0,0,2.38,2.35h13.36A16.36,16.36,0,0,0,111.35,201c0,8.42,13.31,24.37,14.83,26.16a2.39,2.39,0,0,0,3.64,0c1.52-1.79,14.83-17.74,14.83-26.16a16.36,16.36,0,0,0-5.59-12.29h13.36a2.36,2.36,0,0,0,2.38-2.35V175.8a2.37,2.37,0,0,0-2.38-2.36Zm6.22-10.21H97.36v-72A74.43,74.43,0,0,1,124,34.2a6.25,6.25,0,0,1,8.09,0,74.41,74.41,0,0,1,26.6,57ZM135.13,30.61a11,11,0,0,0-14.26,0A79.11,79.11,0,0,0,92.6,91.19v74.4A2.36,2.36,0,0,0,95,167.94h66a2.37,2.37,0,0,0,2.38-2.35V91.2a79.11,79.11,0,0,0-28.27-60.59Z"/></g></g></g></g></g></g></g></g></g></svg>