<?xml version="1.0" encoding="UTF-8"?>
<svg width="185px" height="48px" viewBox="0 0 185 48" version="1.1" xmlns="http://www.w3.org/2000/svg" xmlns:xlink="http://www.w3.org/1999/xlink">
    <!-- Generator: Sketch 58 (84663) - https://sketch.com -->
    <title>gobi-logo</title>
    <desc>Created with Sketch.</desc>
    <g id="Boarding" stroke="none" stroke-width="1" fill="none" fill-rule="evenodd">
        <g id="Desktop-XL" transform="translate(-71.000000, -55.000000)" fill="#161C24">
            <path d="M115.622491,102.970237 C118.592251,102.742253 121.246799,101.241011 122.906798,98.8498575 L126.212301,94.0877892 C126.702028,93.3830031 127.519648,92.96156 128.398258,92.96156 L129.09088,92.96156 C131.040728,92.96156 132.621622,91.4329361 132.621622,89.5477523 C132.621622,87.6631638 131.040728,86.1351351 129.09088,86.1351351 L128.398258,86.1351351 C125.162197,86.1351351 122.151978,87.6851884 120.348263,90.2840871 L117.043363,95.0455602 C116.425619,95.9348764 115.538555,96.1283355 115.064529,96.1646462 C114.588087,96.1979807 113.683512,96.1444074 112.929296,95.3616425 L108.908224,91.1811418 C107.080354,89.2816718 104.493438,88.1929439 101.809905,88.1929439 L101.808093,88.1929439 C99.1245605,88.1935392 96.5376444,89.2828623 94.7109821,91.181737 L90.6911174,95.3604519 C89.9369022,96.1438122 89.0262884,96.1979807 88.5564889,96.164051 C88.0824625,96.1277402 87.1953991,95.9342812 86.578259,95.0455602 L83.2721512,90.2840871 C81.4684355,87.6851884 78.4588206,86.1351351 75.2227601,86.1351351 L74.5307419,86.1351351 C72.5808932,86.1351351 71,87.6631638 71,89.5477523 C71,91.4329361 72.5808932,92.96156 74.5307419,92.96156 L75.2227601,92.96156 C76.1013696,92.96156 76.9183858,93.3830031 77.4081124,94.0877892 L80.7142202,98.8498575 C82.3742184,101.241606 85.029974,102.742253 87.9997344,102.969642 C90.9664754,103.198816 93.8347881,102.117827 95.8625342,100.009421 L99.8830028,95.8313014 C100.386014,95.3080692 101.070182,95.0199641 101.809301,95.0199641 C102.549024,95.0193688 103.233192,95.3080692 103.737411,95.8307062 L107.758484,100.010612 C109.608092,101.933297 112.155758,103 114.84231,103 C115.101364,103 115.361626,102.989881 115.622491,102.970237 L115.622491,102.970237 Z M102.783784,55 C110.307301,55 116.405405,61.0986595 116.405405,68.6216216 C116.405405,76.1445837 110.307301,82.2432432 102.783784,82.2432432 C95.2608668,82.2432432 89.1621622,76.1445837 89.1621622,68.6216216 C89.1621622,61.0986595 95.2608668,55 102.783784,55 L102.783784,55 Z M102.78409,62.1351351 C99.2075584,62.1351351 96.2972973,65.0450697 96.2972973,68.6216216 C96.2972973,72.1987868 99.2075584,75.1081081 102.78409,75.1081081 C106.360622,75.1081081 109.27027,72.1987868 109.27027,68.6216216 C109.27027,65.0450697 106.360622,62.1351351 102.78409,62.1351351 L102.78409,62.1351351 Z M248.72973,95.8648649 L255.864865,95.8648649 L255.864865,61.4864865 L248.72973,61.4864865 L248.72973,95.8648649 Z M225.378378,90.027027 L225.378378,80.9459459 L232.434509,80.9459459 C234.174637,80.9459459 235.486935,81.38289 236.373855,82.2536615 C237.259549,83.126303 237.702703,84.2202214 237.702703,85.5360401 C237.702703,86.852482 237.26813,87.9301942 236.398373,88.7685534 C235.528002,89.6075358 234.271481,90.027027 232.628197,90.027027 L225.378378,90.027027 Z M225.378378,75.7567568 L225.378378,67.3243243 L231.956904,67.3243243 C233.34451,67.3243243 234.433228,67.7353587 235.221859,68.5568047 C236.00989,69.3788734 236.405405,70.3653559 236.405405,71.5150066 C236.405405,72.6665256 236.003288,73.6611042 235.198452,74.4987425 C234.394217,75.3370035 233.250282,75.7567568 231.767248,75.7567568 L225.378378,75.7567568 Z M218.891892,95.8648649 L232.865497,95.8648649 C234.439437,95.8648649 235.908896,95.6411049 237.274485,95.1929787 C238.639462,94.744246 239.835803,94.1051052 240.863508,93.2719178 C241.891823,92.4399433 242.702622,91.4399971 243.297738,90.271473 C243.89102,89.102949 244.189189,87.782826 244.189189,86.309285 C244.189189,84.2930201 243.650286,82.6054215 242.574312,81.2446701 C241.497116,79.8839186 240.075927,78.8839725 238.310132,78.2436189 L238.310132,77.8591642 C239.627452,77.219417 240.727254,76.2831423 241.610763,75.0503404 C242.49366,73.8187512 242.936025,72.2894218 242.936025,70.4647778 C242.936025,69.2168159 242.662296,68.0488983 242.116672,66.959812 C241.569826,65.8719385 240.823182,64.9192912 239.876129,64.1030829 C238.928466,63.2868746 237.811555,62.6471274 236.52723,62.1826285 C235.242293,61.7193423 233.860208,61.4864865 232.383417,61.4864865 L218.891892,61.4864865 L218.891892,95.8648649 Z M192.07333,89.821336 C190.696277,89.2517762 189.492109,88.461587 188.463234,87.4477706 C187.433758,86.4357528 186.626561,85.2097004 186.041043,83.770213 C185.454921,82.3301261 185.162162,80.740155 185.162162,78.9997002 C185.162162,77.259845 185.454921,75.6704734 186.041043,74.2291874 C186.626561,72.7902996 187.433758,71.5642472 188.463234,70.5516299 C189.492109,69.5390126 190.696277,68.7476242 192.07333,68.178664 C193.450384,67.6085047 194.929842,67.3243243 196.513514,67.3243243 C198.096582,67.3243243 199.577246,67.6085047 200.954299,68.178664 C202.331955,68.7476242 203.534316,69.5390126 204.563793,70.5516299 C205.592667,71.5642472 206.399863,72.7902996 206.985984,74.2291874 C207.571503,75.6704734 207.864865,77.259845 207.864865,78.9997002 C207.864865,80.740155 207.571503,82.3301261 206.985984,83.770213 C206.399863,85.2097004 205.592667,86.4357528 204.563793,87.4477706 C203.534316,88.461587 202.331955,89.2517762 200.954299,89.821336 C199.577246,90.3902963 198.096582,90.6756757 196.513514,90.6756757 C194.929842,90.6756757 193.450384,90.3902963 192.07333,89.821336 L192.07333,89.821336 Z M203.596745,95.1302497 C205.774525,94.2090779 207.658306,92.9445 209.24869,91.3383235 C210.83847,89.7339543 212.085855,87.8410035 212.992053,85.6630859 C213.898857,83.4857708 214.351351,81.1560316 214.351351,78.6756757 C214.351351,76.1953197 213.898857,73.8667855 212.992053,71.6882654 C212.085855,69.5109503 210.83847,67.618602 209.24869,66.0130279 C207.658306,64.4074538 205.774525,63.1434784 203.596745,62.2211017 C201.418359,61.2993274 199.057282,60.8378378 196.513514,60.8378378 C193.96914,60.8378378 191.608668,61.2993274 189.431492,62.2211017 C187.251897,63.1434784 185.368721,64.4074538 183.778942,66.0130279 C182.187952,67.618602 180.941172,69.5109503 180.034974,71.6882654 C179.128775,73.8667855 178.675676,76.1953197 178.675676,78.6756757 C178.675676,81.1560316 179.128775,83.4857708 180.034974,85.6630859 C180.941172,87.8410035 182.187952,89.7339543 183.778942,91.3383235 C185.368721,92.9445 187.251897,94.2090779 189.431492,95.1302497 C191.608668,96.0520239 193.96914,96.5135135 196.513514,96.5135135 C199.057282,96.5135135 201.418359,96.0520239 203.596745,95.1302497 L203.596745,95.1302497 Z M157.816964,96.5135135 C155.34598,96.5135135 152.983008,96.0648006 150.794422,95.1781727 C148.606439,94.2927445 146.676719,93.0407875 145.060774,91.4576948 C143.443622,89.8758018 142.141452,87.9741709 141.190471,85.8061917 C140.238885,83.6388124 139.756757,81.239878 139.756757,78.6759756 C139.756757,76.1126731 140.238885,73.7137387 141.190471,71.5457595 C142.141452,69.3777803 143.443622,67.4767493 145.060774,65.8942564 C146.676719,64.3117636 148.606439,63.0598066 150.794422,62.1737785 C152.984214,61.2871506 155.347187,60.8378378 157.816964,60.8378378 C160.573967,60.8378378 163.073311,61.3195443 165.246208,62.2697599 C167.417295,63.2193756 169.30719,64.551717 170.861587,66.2289915 L170.912274,66.2835809 L166.378818,70.7119214 L166.324511,70.6549324 C165.225089,69.4959574 163.984468,68.5991314 162.637646,67.9890499 C161.29022,67.3789683 159.652552,67.0700282 157.769294,67.0700282 C156.233,67.0700282 154.75403,67.3477743 153.373417,67.8960679 C151.995217,68.4431617 150.770889,69.2278094 149.735429,70.229615 C148.699969,71.2326203 147.865446,72.4623816 147.254187,73.8859053 C146.643531,75.3100289 146.332772,76.9219161 146.332772,78.6759756 C146.332772,80.4306351 146.643531,82.0425222 147.254187,83.4660459 C147.865446,84.8907694 148.708417,86.1205307 149.758358,87.1217364 C150.809507,88.1235419 152.04168,88.9093894 153.420483,89.4558833 C154.79989,90.0041769 156.295152,90.281923 157.864634,90.281923 C159.652552,90.281923 161.187036,90.0209737 162.425847,89.5044739 C163.666468,88.9873743 164.738736,88.3131051 165.614291,87.5002629 C166.240032,86.9387719 166.78733,86.2189116 167.240494,85.3604782 C167.681591,84.5242405 168.031571,83.578824 168.281385,82.5512235 L157.597321,82.5512235 L157.597321,76.937513 L174.432596,76.937513 L174.447682,76.9957017 C174.542418,77.3736284 174.623275,77.8397379 174.687237,78.3820327 C174.751199,78.9255272 174.783784,79.4720211 174.783784,80.0059175 C174.783784,82.187694 174.445871,84.2728893 173.779701,86.2045144 C173.113531,88.1367394 172.051521,89.8877995 170.623238,91.4079045 C169.100219,93.0233909 167.250752,94.2927445 165.126129,95.1781727 C163.000298,96.0642007 160.541382,96.5135135 157.816964,96.5135135 L157.816964,96.5135135 Z" id="gobi-logo"></path>
        </g>
    </g>
</svg>