<?xml version="1.0" encoding="UTF-8"?>
<svg width="48px" height="48px" viewBox="0 0 48 48" version="1.1" xmlns="http://www.w3.org/2000/svg" xmlns:xlink="http://www.w3.org/1999/xlink">
    <!-- Generator: Sketch 59.1 (86144) - https://sketch.com -->
    <title>next-arrow</title>
    <desc>Created with Sketch.</desc>
    <g id="next-arrow" stroke="none" stroke-width="1" fill="none" fill-rule="evenodd">
        <g transform="translate(-0.000000, 0.000000)">
            <rect id="Rectangle" x="-2.27373675e-13" y="0" width="48" height="48"></rect>
            <path d="M39.9285582,24.8435127 C40.0633567,24.516829 40.0633567,24.1501432 39.9285582,23.8234596 C39.8604917,23.6607844 39.763063,23.5127767 39.6402763,23.3901037 L31.6324449,15.3910204 C31.1119359,14.8696599 30.2671097,14.8696599 29.745266,15.3910204 C29.2234223,15.9110475 29.2234223,16.7550914 29.745266,17.2764519 L35.4748694,23.00075 L9.33463856,23.00075 C8.59791807,23.00075 8,23.5967811 8,24.3341528 C8,25.0701912 8.59791807,25.6675556 9.33463856,25.6675556 L35.4748694,25.6675556 L29.745266,31.3918537 C29.2234223,31.9118808 29.2234223,32.7559248 29.745266,33.2772853 C30.0055205,33.5372988 30.347188,33.6679723 30.6888555,33.6679723 C31.030523,33.6679723 31.3721904,33.5372988 31.6324449,33.2772853 L39.6402763,25.2768686 C39.763063,25.1541955 39.8604917,25.0075212 39.9285582,24.8435127" fill="#2E3339"></path>
        </g>
    </g>
</svg>