<?xml version="1.0" encoding="UTF-8"?>
<svg width="48px" height="48px" viewBox="0 0 48 48" version="1.1" xmlns="http://www.w3.org/2000/svg" xmlns:xlink="http://www.w3.org/1999/xlink">
    <!-- Generator: Sketch 59.1 (86144) - https://sketch.com -->
    <title>paper-clip</title>
    <desc>Created with Sketch.</desc>
    <g id="paper-clip" stroke="none" stroke-width="1" fill="none" fill-rule="evenodd">
        <g>
            <rect id="wrapper" x="0" y="0" width="48" height="48"></rect>
            <path d="M14.3909885,24.1077034 L25.6280802,12.7929907 C28.0022057,10.4024419 31.8612244,10.4022309 34.2354571,12.7929907 C36.5867611,15.160442 36.5896004,18.9802999 34.2354571,21.3504933 L24.4400264,31.2039928 C22.8406511,32.8143384 20.2275434,32.7919264 18.6552752,31.151364 C17.1405427,29.5709713 17.189132,27.0659364 18.7330609,25.5112781 L26.4335804,17.768045 C26.764759,17.435081 27.3074377,17.4293857 27.6456878,17.7553361 L28.8703845,18.9354758 C29.2086346,19.2615316 29.2144203,19.7956768 28.8832952,20.1286408 L21.1835793,27.8711356 C20.9193649,28.1371799 20.9030792,28.5793038 21.148865,28.8357505 C21.3830793,29.080121 21.7512758,29.0841815 21.9892937,28.8444516 L31.784778,18.9910577 C32.8354746,17.9331032 32.8354746,16.2106445 31.7841887,15.1520573 C30.7562063,14.1170422 29.1079202,14.1165676 28.0795093,15.1520573 L16.8423105,26.4667172 C14.9800065,28.3419997 14.9512922,31.3773302 16.7785069,33.2332593 C18.6004716,35.0838622 21.5455615,35.0861825 23.3709012,33.2483413 L32.5884031,23.9671139 C32.9193139,23.6339389 33.4619926,23.6278745 33.8005105,23.9536667 L35.0260644,25.1329626 C35.3645823,25.4587021 35.370743,25.9929527 35.0397787,26.3261277 L25.8222767,35.6072496 C22.6307046,38.8208218 17.4681856,38.782695 14.3167385,35.5817262 C11.1865593,32.4023785 11.2448986,27.2754496 14.3909885,24.1077034 Z" fill="#8B8E91"></path>
        </g>
    </g>
</svg>