<?xml version="1.0" encoding="UTF-8"?>
<svg width="48px" height="48px" viewBox="0 0 48 48" version="1.1" xmlns="http://www.w3.org/2000/svg" xmlns:xlink="http://www.w3.org/1999/xlink">
    <!-- Generator: Sketch 59.1 (86144) - https://sketch.com -->
    <title>prev-arrow</title>
    <desc>Created with Sketch.</desc>
    <g id="prev-arrow" stroke="none" stroke-width="1" fill="none" fill-rule="evenodd">
        <g>
            <rect id="wrapper" x="0" y="0" width="48" height="48"></rect>
            <path d="M40,24.3255101 C40,25.0608669 39.4026356,25.6576782 38.6665972,25.6576782 L12.5505703,25.6576782 L18.2748685,31.3766761 C18.796229,31.8975538 18.796229,32.7394841 18.2748685,33.2603619 C18.0148549,33.5201347 17.6735038,33.6506871 17.3321527,33.6506871 C16.9908016,33.6506871 16.6494505,33.5201347 16.3894369,33.2603619 L8.38902026,25.2686851 C8.26634721,25.1447935 8.1690088,24.998255 8.10100526,24.8343983 C7.96633158,24.5093493 7.96633158,24.1416709 8.10100526,23.8166219 C8.1690088,23.6540973 8.26634721,23.5062267 8.38902026,23.382335 L16.3894369,15.3906583 C16.9107974,14.8697806 17.753508,14.8697806 18.2748685,15.3906583 C18.796229,15.9115361 18.796229,16.7534663 18.2748685,17.2743441 L12.5505703,22.9933419 L38.6665972,22.9933419 C39.4026356,22.9933419 40,23.5901533 40,24.3255101" fill="#2E3339"></path>
        </g>
    </g>
</svg>