<?xml version="1.0" encoding="UTF-8"?>
<svg width="40px" height="32px" viewBox="0 0 40 32" version="1.1" xmlns="http://www.w3.org/2000/svg" xmlns:xlink="http://www.w3.org/1999/xlink">
    <!-- Generator: Sketch 59.1 (86144) - https://sketch.com -->
    <title>“</title>
    <desc>Created with Sketch.</desc>
    <g id="Home" stroke="none" stroke-width="1" fill="none" fill-rule="evenodd">
        <g id="Desktop-L" transform="translate(-280.000000, -3364.000000)" fill="#E4E4E4" fill-rule="nonzero">
            <g id="testimonials-s4" transform="translate(0.000000, 3072.000000)">
                <g id="testimonial" transform="translate(209.000000, 120.000000)">
                    <path d="M87.7769271,187.704797 L87.7769271,204 L71.0658017,204 L71.0658017,193.254613 C71.0658017,189.161111 71.7819856,185.441591 73.2143749,182.095941 C74.6467643,178.750291 77.073832,175.385011 80.495651,172 L86.5832753,176.723247 C84.6734228,178.769998 83.201267,180.659278 82.1667636,182.391144 C81.1322602,184.12301 80.4558642,185.89421 80.1375555,187.704797 L87.7769271,187.704797 Z M110.058428,187.704797 L110.058428,204 L93.3473023,204 L93.3473023,193.254613 C93.3473023,189.161111 94.0634862,185.441591 95.4958755,182.095941 C96.9282649,178.750291 99.3553326,175.385011 102.777152,172 L108.864776,176.723247 C106.954923,178.769998 105.482768,180.659278 104.448264,182.391144 C103.413761,184.12301 102.737365,185.89421 102.419056,187.704797 L110.058428,187.704797 Z" id="“"></path>
                </g>
            </g>
        </g>
    </g>
</svg>