<svg xmlns="http://www.w3.org/2000/svg" viewBox="0 0 256 256"><defs><style>.cls-1{fill:none;}.cls-2{fill:#cb9042;}.cls-2,.cls-3,.cls-4{fill-rule:evenodd;}.cls-3{fill:#986c31;}.cls-4{fill:#2e3339;}</style></defs><title>Asset 3</title><g id="Layer_2" data-name="Layer 2"><g id="Layer_1-2" data-name="Layer 1"><rect class="cls-1" width="256" height="256"/><g id="Home"><g id="Desktop-L"><g id="services-s3"><g id="content"><g id="services"><g id="strategy"><g id="strategy-icon"><path id="Fill-1" class="cls-2" d="M140.15,128A12.15,12.15,0,1,1,128,115.89,12.13,12.13,0,0,1,140.15,128"/><path id="Fill-3" class="cls-3" d="M158.45,151.18,146.2,139l7.34-4.91a1.43,1.43,0,0,0-.46-2.59l-25-6a1.44,1.44,0,0,0-1.74,1.73l6,24.93a1.44,1.44,0,0,0,2.59.47l4.93-7.33,12.25,12.22a1.45,1.45,0,0,0,2,0l4.32-4.31a1.44,1.44,0,0,0,0-2"/><path id="Fill-5" class="cls-2" d="M128,45.6A12.4,12.4,0,0,1,116.55,38a12.15,12.15,0,0,0-1,4.76,12.41,12.41,0,0,0,24.82,0,12.15,12.15,0,0,0-1-4.76A12.4,12.4,0,0,1,128,45.6"/><path id="Fill-7" class="cls-2" d="M128,216.11a12.4,12.4,0,0,1-11.45-7.61,12.14,12.14,0,0,0-1,4.75,12.41,12.41,0,0,0,24.82,0,12.14,12.14,0,0,0-1-4.75A12.4,12.4,0,0,1,128,216.11"/><path id="Fill-9" class="cls-2" d="M42.47,130.85A12.42,12.42,0,0,1,31,123.24a12.41,12.41,0,1,0,22.91,0,12.4,12.4,0,0,1-11.45,7.61"/><path id="Fill-11" class="cls-2" d="M213.53,130.85a12.4,12.4,0,0,1-11.45-7.61,12.41,12.41,0,1,0,22.91,0,12.42,12.42,0,0,1-11.46,7.61"/><path id="Fill-13" class="cls-4" d="M159.17,145.15a35.63,35.63,0,1,0-13.27,13.52,2.38,2.38,0,1,0-2.4-4.11A30.67,30.67,0,1,1,155,142.85a2.39,2.39,0,0,0,4.18,2.3"/><path id="Fill-15" class="cls-4" d="M128,105.88A22.12,22.12,0,0,0,126.1,150h.2a2.38,2.38,0,0,0,.2-4.75,17.37,17.37,0,1,1,18.78-19.51,2.38,2.38,0,0,0,4.73-.6,22.19,22.19,0,0,0-22-19.31"/><path id="Fill-17" class="cls-4" d="M42.47,138a10,10,0,1,1,10-10,10,10,0,0,1-10,10Zm41.76-7.61a2.38,2.38,0,1,0,0-4.76H57.05a14.75,14.75,0,1,0,0,4.76Z"/><path id="Fill-19" class="cls-4" d="M176.19,185l-9-9,9-9,9,9Zm1.69-23a2.4,2.4,0,0,0-3.38,0l-4.5,4.5-9.36-9.33a2.4,2.4,0,0,0-3.38,0,2.37,2.37,0,0,0,0,3.36l9.36,9.33-4.5,4.49a2.35,2.35,0,0,0,0,3.36l12.39,12.36a2.37,2.37,0,0,0,1.68.69,2.41,2.41,0,0,0,1.69-.69l12.39-12.36a2.37,2.37,0,0,0,0-3.36Z"/><path id="Fill-21" class="cls-4" d="M79.81,71l9,9-9,9-9-9ZM78.12,94a2.41,2.41,0,0,0,3.38,0L86,89.5l9.35,9.33a2.38,2.38,0,1,0,3.38-3.36l-9.36-9.33,4.51-4.49a2.37,2.37,0,0,0,0-3.36L81.5,65.93a2.41,2.41,0,0,0-3.38,0L65.73,78.28a2.38,2.38,0,0,0,0,3.37Z"/><path id="Fill-23" class="cls-4" d="M79.81,185l-9-9,9-9,9,9Zm15.55-27.85L86,166.5,81.5,162a2.4,2.4,0,0,0-3.38,0L65.73,174.35a2.38,2.38,0,0,0,0,3.37l12.39,12.35a2.41,2.41,0,0,0,3.38,0l12.39-12.35a2.38,2.38,0,0,0,0-3.37l-4.51-4.49,9.36-9.33a2.37,2.37,0,0,0,0-3.36,2.4,2.4,0,0,0-3.38,0Z"/><path id="Fill-25" class="cls-4" d="M176.19,71l9,9-9,9-9-9ZM159,99.53a2.38,2.38,0,0,0,1.69-.7L170,89.5l4.5,4.5a2.41,2.41,0,0,0,3.38,0l12.39-12.35a2.38,2.38,0,0,0,0-3.37L177.88,65.93a2.41,2.41,0,0,0-3.38,0L162.11,78.28a2.38,2.38,0,0,0,0,3.37l4.51,4.49-9.36,9.33A2.38,2.38,0,0,0,159,99.53Z"/><path id="Fill-27" class="cls-4" d="M128,32.76a10,10,0,1,1-10,10,10,10,0,0,1,10-10m-2.39,24.52V84.37a2.39,2.39,0,0,0,4.78,0V57.28a14.79,14.79,0,1,0-4.78,0"/><path id="Fill-29" class="cls-4" d="M128,223.24a10,10,0,1,1,10-10,10,10,0,0,1-10,10m2.39-24.52V171.63a2.39,2.39,0,0,0-4.78,0v27.09a14.79,14.79,0,1,0,4.78,0"/><path id="Fill-31" class="cls-4" d="M213.53,138a10,10,0,1,1,10-10,10,10,0,0,1-10,10m0-24.74A14.8,14.8,0,0,0,199,125.62H171.77a2.38,2.38,0,1,0,0,4.76H199a14.78,14.78,0,1,0,14.58-17.13"/></g></g></g></g></g></g></g></g></g></svg>