<?xml version="1.0" encoding="UTF-8"?>
<svg width="158px" height="112px" viewBox="0 0 158 112" version="1.1" xmlns="http://www.w3.org/2000/svg" xmlns:xlink="http://www.w3.org/1999/xlink">
    <!-- Generator: Sketch 58 (84663) - https://sketch.com -->
    <title>Shape</title>
    <desc>Created with Sketch.</desc>
    <g id="Boarding" stroke="none" stroke-width="1" fill="none" fill-rule="evenodd">
        <g id="Desktop-XL" transform="translate(-1234.000000, -59.000000)" fill="#161C24" fill-rule="nonzero">
            <g id="footer">
                <g id="introduction-s1">
                    <path d="M1234.632,82 L1234.632,59.44 L1249.736,59.44 L1249.736,62.704 L1238.664,62.704 L1238.664,68.912 L1249.096,68.912 L1249.096,72.144 L1238.664,72.144 L1238.664,78.736 L1249.736,78.736 L1249.736,82 L1234.632,82 Z M1261.864,73.936 L1268.456,82 L1263.72,82 L1259.56,76.784 L1255.432,82 L1250.696,82 L1257.256,73.936 L1251.048,66.352 L1255.816,66.352 L1259.56,71.12 L1263.304,66.352 L1268.072,66.352 L1261.864,73.936 Z M1279.144,65.968 C1280.48801,65.968 1281.68799,66.3093299 1282.744,66.992 C1283.80001,67.6746701 1284.62133,68.6399938 1285.208,69.888 C1285.79467,71.1360062 1286.088,72.5706586 1286.088,74.192 C1286.088,75.8133414 1285.79467,77.2319939 1285.208,78.448 C1284.62133,79.6640061 1283.80534,80.6026634 1282.76,81.264 C1281.71466,81.9253366 1280.50934,82.256 1279.144,82.256 C1278.03466,82.256 1277.04267,82.0213357 1276.168,81.552 C1275.29333,81.0826643 1274.62134,80.4320042 1274.152,79.6 L1274.152,87.76 L1270.152,87.76 L1270.152,66.352 L1274.088,66.352 L1274.088,68.72 C1274.55734,67.845329 1275.23466,67.1680024 1276.12,66.688 C1277.00534,66.2079976 1278.01333,65.968 1279.144,65.968 Z M1278.088,79.152 C1279.34667,79.152 1280.328,78.7200043 1281.032,77.856 C1281.736,76.9919957 1282.088,75.7706746 1282.088,74.192 C1282.088,72.5706586 1281.736,71.3120045 1281.032,70.416 C1280.328,69.5199955 1279.34667,69.072 1278.088,69.072 C1276.80799,69.072 1275.82134,69.509329 1275.128,70.384 C1274.43466,71.258671 1274.088,72.5066586 1274.088,74.128 C1274.088,75.728008 1274.43466,76.965329 1275.128,77.84 C1275.82134,78.714671 1276.80799,79.152 1278.088,79.152 Z M1303.112,74.896 L1292.456,74.896 C1292.584,76.3466739 1293.02133,77.4239965 1293.768,78.128 C1294.51467,78.8320035 1295.58133,79.184 1296.968,79.184 C1298.69601,79.184 1300.27466,78.6293389 1301.704,77.52 L1302.856,80.272 C1302.13066,80.8693363 1301.21867,81.3493315 1300.12,81.712 C1299.02133,82.0746685 1297.91734,82.256 1296.808,82.256 C1294.24799,82.256 1292.22667,81.5306739 1290.744,80.08 C1289.26133,78.6293261 1288.52,76.6453459 1288.52,74.128 C1288.52,72.527992 1288.84,71.1093395 1289.48,69.872 C1290.12,68.6346605 1291.02133,67.6746701 1292.184,66.992 C1293.34667,66.3093299 1294.66399,65.968 1296.136,65.968 C1298.29068,65.968 1299.99199,66.6613264 1301.24,68.048 C1302.48801,69.4346736 1303.112,71.3439878 1303.112,73.776 L1303.112,74.896 Z M1296.232,68.784 C1295.16533,68.784 1294.30667,69.1253299 1293.656,69.808 C1293.00533,70.4906701 1292.60533,71.4719936 1292.456,72.752 L1299.688,72.752 C1299.64533,71.4506602 1299.32534,70.4640034 1298.728,69.792 C1298.13066,69.1199966 1297.29867,68.784 1296.232,68.784 Z M1316.68,69.296 L1314.344,69.52 C1311.69865,69.7973347 1310.376,71.1413213 1310.376,73.552 L1310.376,82 L1306.376,82 L1306.376,66.352 L1310.184,66.352 L1310.184,69.104 C1310.96349,67.2988628 1312.54178,66.2826983 1314.91891,66.0554793 L1316.424,65.936 L1316.68,69.296 Z M1318.632,82 L1318.632,66.352 L1322.632,66.352 L1322.632,82 L1318.632,82 Z M1318.408,59.088 L1322.824,59.088 L1322.824,63.024 L1318.408,63.024 L1318.408,59.088 Z M1340.488,74.896 L1329.832,74.896 C1329.96,76.3466739 1330.39733,77.4239965 1331.144,78.128 C1331.89067,78.8320035 1332.95733,79.184 1334.344,79.184 C1336.07201,79.184 1337.65066,78.6293389 1339.08,77.52 L1340.232,80.272 C1339.50666,80.8693363 1338.59467,81.3493315 1337.496,81.712 C1336.39733,82.0746685 1335.29334,82.256 1334.184,82.256 C1331.62399,82.256 1329.60267,81.5306739 1328.12,80.08 C1326.63733,78.6293261 1325.896,76.6453459 1325.896,74.128 C1325.896,72.527992 1326.216,71.1093395 1326.856,69.872 C1327.496,68.6346605 1328.39733,67.6746701 1329.56,66.992 C1330.72267,66.3093299 1332.03999,65.968 1333.512,65.968 C1335.66668,65.968 1337.36799,66.6613264 1338.616,68.048 C1339.86401,69.4346736 1340.488,71.3439878 1340.488,73.776 L1340.488,74.896 Z M1333.608,68.784 C1332.54133,68.784 1331.68267,69.1253299 1331.032,69.808 C1330.38133,70.4906701 1329.98133,71.4719936 1329.832,72.752 L1337.064,72.752 C1337.02133,71.4506602 1336.70134,70.4640034 1336.104,69.792 C1335.50666,69.1199966 1334.67467,68.784 1333.608,68.784 Z M1352.84,65.968 C1354.71734,65.968 1356.11466,66.501328 1357.032,67.568 C1357.94934,68.634672 1358.408,70.2453226 1358.408,72.4 L1358.408,82 L1354.408,82 L1354.408,72.624 C1354.408,71.4079939 1354.17867,70.5226694 1353.72,69.968 C1353.26133,69.4133306 1352.54134,69.136 1351.56,69.136 C1350.40799,69.136 1349.48534,69.498663 1348.792,70.224 C1348.09866,70.949337 1347.752,71.9199939 1347.752,73.136 L1347.752,82 L1343.752,82 L1343.752,66.352 L1347.656,66.352 L1347.656,68.688 C1348.18934,67.813329 1348.904,67.1413357 1349.8,66.672 C1350.696,66.2026643 1351.70933,65.968 1352.84,65.968 Z M1369.608,82.256 C1367.96533,82.256 1366.54134,81.9253366 1365.336,81.264 C1364.13066,80.6026634 1363.208,79.6640061 1362.568,78.448 C1361.928,77.2319939 1361.608,75.8133414 1361.608,74.192 C1361.608,72.5706586 1361.944,71.1360062 1362.616,69.888 C1363.288,68.6399938 1364.24266,67.6746701 1365.48,66.992 C1366.71734,66.3093299 1368.14666,65.968 1369.768,65.968 C1370.87734,65.968 1371.95999,66.1439982 1373.016,66.496 C1374.07201,66.8480018 1374.92,67.3226637 1375.56,67.92 L1374.408,70.736 C1373.74666,70.202664 1373.048,69.7973347 1372.312,69.52 C1371.576,69.2426653 1370.84534,69.104 1370.12,69.104 C1368.73333,69.104 1367.656,69.5359957 1366.888,70.4 C1366.12,71.2640043 1365.736,72.5066586 1365.736,74.128 C1365.736,75.728008 1366.12,76.9599957 1366.888,77.824 C1367.656,78.6880043 1368.73333,79.12 1370.12,79.12 C1370.84534,79.12 1371.576,78.9813347 1372.312,78.704 C1373.048,78.4266653 1373.74666,78.021336 1374.408,77.488 L1375.56,80.272 C1374.87733,80.8906698 1374.00267,81.3759982 1372.936,81.728 C1371.86933,82.0800018 1370.76001,82.256 1369.608,82.256 Z M1391.816,74.896 L1381.16,74.896 C1381.288,76.3466739 1381.72533,77.4239965 1382.472,78.128 C1383.21867,78.8320035 1384.28533,79.184 1385.672,79.184 C1387.40001,79.184 1388.97866,78.6293389 1390.408,77.52 L1391.56,80.272 C1390.83466,80.8693363 1389.92267,81.3493315 1388.824,81.712 C1387.72533,82.0746685 1386.62134,82.256 1385.512,82.256 C1382.95199,82.256 1380.93067,81.5306739 1379.448,80.08 C1377.96533,78.6293261 1377.224,76.6453459 1377.224,74.128 C1377.224,72.527992 1377.544,71.1093395 1378.184,69.872 C1378.824,68.6346605 1379.72533,67.6746701 1380.888,66.992 C1382.05067,66.3093299 1383.36799,65.968 1384.84,65.968 C1386.99468,65.968 1388.69599,66.6613264 1389.944,68.048 C1391.19201,69.4346736 1391.816,71.3439878 1391.816,73.776 L1391.816,74.896 Z M1384.936,68.784 C1383.86933,68.784 1383.01067,69.1253299 1382.36,69.808 C1381.70933,70.4906701 1381.30933,71.4719936 1381.16,72.752 L1388.392,72.752 C1388.34933,71.4506602 1388.02934,70.4640034 1387.432,69.792 C1386.83466,69.1199966 1386.00267,68.784 1384.936,68.784 Z M1292.584,103.44 L1300.904,103.44 C1304.59469,103.44 1307.45866,104.426657 1309.496,106.4 C1311.53334,108.373343 1312.552,111.141316 1312.552,114.704 C1312.552,118.266684 1311.53334,121.03999 1309.496,123.024 C1307.45866,125.00801 1304.59469,126 1300.904,126 L1292.584,126 L1292.584,103.44 Z M1300.648,122.64 C1305.83203,122.64 1308.424,119.994693 1308.424,114.704 C1308.424,109.43464 1305.83203,106.8 1300.648,106.8 L1296.712,106.8 L1296.712,122.64 L1300.648,122.64 Z M1330.088,118.896 L1319.432,118.896 C1319.56,120.346674 1319.99733,121.423996 1320.744,122.128 C1321.49067,122.832004 1322.55733,123.184 1323.944,123.184 C1325.67201,123.184 1327.25066,122.629339 1328.68,121.52 L1329.832,124.272 C1329.10666,124.869336 1328.19467,125.349332 1327.096,125.712 C1325.99733,126.074668 1324.89334,126.256 1323.784,126.256 C1321.22399,126.256 1319.20267,125.530674 1317.72,124.08 C1316.23733,122.629326 1315.496,120.645346 1315.496,118.128 C1315.496,116.527992 1315.816,115.10934 1316.456,113.872 C1317.096,112.63466 1317.99733,111.67467 1319.16,110.992 C1320.32267,110.30933 1321.63999,109.968 1323.112,109.968 C1325.26668,109.968 1326.96799,110.661326 1328.216,112.048 C1329.46401,113.434674 1330.088,115.343988 1330.088,117.776 L1330.088,118.896 Z M1323.208,112.784 C1322.14133,112.784 1321.28267,113.12533 1320.632,113.808 C1319.98133,114.49067 1319.58133,115.471994 1319.432,116.752 L1326.664,116.752 C1326.62133,115.45066 1326.30134,114.464003 1325.704,113.792 C1325.10666,113.119997 1324.27467,112.784 1323.208,112.784 Z M1339.112,126.256 C1337.72533,126.256 1336.45067,126.085335 1335.288,125.744 C1334.12533,125.402665 1333.13867,124.912003 1332.328,124.272 L1333.448,121.488 C1335.11201,122.704006 1337.02132,123.312 1339.176,123.312 C1340.09334,123.312 1340.792,123.162668 1341.272,122.864 C1341.752,122.565332 1341.992,122.138669 1341.992,121.584 C1341.992,121.114664 1341.82667,120.752001 1341.496,120.496 C1341.16533,120.239999 1340.57334,120.005334 1339.72,119.792 L1337.16,119.216 C1335.70933,118.895998 1334.632,118.373337 1333.928,117.648 C1333.224,116.922663 1332.872,115.984006 1332.872,114.832 C1332.872,113.871995 1333.144,113.024004 1333.688,112.288 C1334.232,111.551996 1334.98933,110.981335 1335.96,110.576 C1336.93067,110.170665 1338.05599,109.968 1339.336,109.968 C1340.44534,109.968 1341.51733,110.138665 1342.552,110.48 C1343.58667,110.821335 1344.49866,111.30133 1345.288,111.92 L1344.168,114.64 C1342.54666,113.466661 1340.92534,112.88 1339.304,112.88 C1338.42933,112.88 1337.74667,113.039998 1337.256,113.36 C1336.76533,113.680002 1336.52,114.127997 1336.52,114.704 C1336.52,115.130669 1336.67467,115.482665 1336.984,115.76 C1337.29333,116.037335 1337.78933,116.250666 1338.472,116.4 L1341.128,117.008 C1342.68534,117.349335 1343.82666,117.887996 1344.552,118.624 C1345.27734,119.360004 1345.64,120.325327 1345.64,121.52 C1345.64,122.970674 1345.05334,124.122662 1343.88,124.976 C1342.70666,125.829338 1341.11734,126.256 1339.112,126.256 Z M1348.872,126 L1348.872,110.352 L1352.872,110.352 L1352.872,126 L1348.872,126 Z M1348.648,103.088 L1353.064,103.088 L1353.064,107.024 L1348.648,107.024 L1348.648,103.088 Z M1372.232,110.352 L1372.232,124.56 C1372.232,127.013346 1371.55467,128.869327 1370.2,130.128 C1368.84533,131.386673 1366.84535,132.016 1364.2,132.016 C1362.83466,132.016 1361.52267,131.840002 1360.264,131.488 C1359.00533,131.135998 1357.90667,130.640003 1356.968,130 L1358.088,127.184 C1360.02934,128.357339 1362.03466,128.944 1364.104,128.944 C1366.87735,128.944 1368.264,127.57868 1368.264,124.848 L1368.264,122.8 C1367.79466,123.674671 1367.112,124.351998 1366.216,124.832 C1365.32,125.312002 1364.29601,125.552 1363.144,125.552 C1361.77866,125.552 1360.56801,125.22667 1359.512,124.576 C1358.45599,123.92533 1357.62934,123.013339 1357.032,121.84 C1356.43466,120.666661 1356.136,119.312008 1356.136,117.776 C1356.136,116.239992 1356.42933,114.880006 1357.016,113.696 C1357.60267,112.511994 1358.42933,111.59467 1359.496,110.944 C1360.56267,110.29333 1361.77866,109.968 1363.144,109.968 C1364.29601,109.968 1365.32,110.207998 1366.216,110.688 C1367.112,111.168002 1367.79466,111.845329 1368.264,112.72 L1368.264,110.352 L1372.232,110.352 Z M1364.2,122.448 C1365.48001,122.448 1366.47733,122.032004 1367.192,121.2 C1367.90667,120.367996 1368.264,119.226674 1368.264,117.776 C1368.264,116.303993 1367.90667,115.152004 1367.192,114.32 C1366.47733,113.487996 1365.48001,113.072 1364.2,113.072 C1362.94133,113.072 1361.94934,113.487996 1361.224,114.32 C1360.49866,115.152004 1360.136,116.303993 1360.136,117.776 C1360.136,119.20534 1360.49866,120.341329 1361.224,121.184 C1361.94934,122.026671 1362.94133,122.448 1364.2,122.448 Z M1385.448,109.968 C1387.32534,109.968 1388.72266,110.501328 1389.64,111.568 C1390.55734,112.634672 1391.016,114.245323 1391.016,116.4 L1391.016,126 L1387.016,126 L1387.016,116.624 C1387.016,115.407994 1386.78667,114.522669 1386.328,113.968 C1385.86933,113.413331 1385.14934,113.136 1384.168,113.136 C1383.01599,113.136 1382.09334,113.498663 1381.4,114.224 C1380.70666,114.949337 1380.36,115.919994 1380.36,117.136 L1380.36,126 L1376.36,126 L1376.36,110.352 L1380.264,110.352 L1380.264,112.688 C1380.79734,111.813329 1381.512,111.141336 1382.408,110.672 C1383.304,110.202664 1384.31733,109.968 1385.448,109.968 Z M1306.792,170.288 C1305.06399,170.288 1303.44267,170.053336 1301.928,169.584 C1300.41333,169.114664 1299.13334,168.453338 1298.088,167.6 L1299.464,164.592 C1300.55201,165.424004 1301.69866,166.031998 1302.904,166.416 C1304.10934,166.800002 1305.41599,166.992 1306.824,166.992 C1308.38134,166.992 1309.58133,166.720003 1310.424,166.176 C1311.26667,165.631997 1311.688,164.869338 1311.688,163.888 C1311.688,163.034662 1311.29867,162.384002 1310.52,161.936 C1309.79324,161.517865 1308.61584,161.118319 1306.98777,160.737351 L1306.632,160.656 C1304.75466,160.250665 1303.22934,159.781336 1302.056,159.248 C1300.88266,158.714664 1299.99734,158.032004 1299.4,157.2 C1298.80266,156.367996 1298.504,155.312006 1298.504,154.032 C1298.504,152.709327 1298.86666,151.525339 1299.592,150.48 C1300.31734,149.434661 1301.34133,148.61867 1302.664,148.032 C1303.98667,147.44533 1305.51199,147.152 1307.24,147.152 C1308.81867,147.152 1310.32266,147.391998 1311.752,147.872 C1313.18134,148.352002 1314.35466,149.007996 1315.272,149.84 L1313.896,152.848 C1311.89066,151.247992 1309.67201,150.448 1307.24,150.448 C1305.78933,150.448 1304.64267,150.74133 1303.8,151.328 C1302.95733,151.91467 1302.536,152.730661 1302.536,153.776 C1302.536,154.650671 1302.90933,155.322664 1303.656,155.792 C1304.35289,156.230047 1305.50507,156.640212 1307.11257,157.022506 L1307.464,157.104 C1309.36268,157.530669 1310.90399,158.005331 1312.088,158.528 C1313.27201,159.050669 1314.17866,159.717329 1314.808,160.528 C1315.43734,161.338671 1315.752,162.36266 1315.752,163.6 C1315.752,164.944007 1315.39467,166.122662 1314.68,167.136 C1313.96533,168.149338 1312.93067,168.927997 1311.576,169.472 C1310.22133,170.016003 1308.62668,170.288 1306.792,170.288 Z M1326.984,167.248 C1327.45334,167.248 1327.944,167.216 1328.456,167.152 L1328.264,170.128 C1327.624,170.192 1327.03734,170.224 1326.504,170.224 C1324.30666,170.224 1322.68534,169.717338 1321.64,168.704 C1320.59466,167.690662 1320.072,166.181343 1320.072,164.176 L1320.072,157.36 L1317.064,157.36 L1317.064,154.352 L1320.072,154.352 L1320.072,149.68 L1324.072,149.68 L1324.072,154.352 L1328.2,154.352 L1328.2,157.36 L1324.072,157.36 L1324.072,164.112 C1324.072,166.202677 1325.04266,167.248 1326.984,167.248 Z M1345.16,154.352 L1345.16,170 L1341.256,170 L1341.256,167.6 C1340.76533,168.453338 1340.104,169.109331 1339.272,169.568 C1338.44,170.026669 1337.50134,170.256 1336.456,170.256 C1332.61598,170.256 1330.696,168.101355 1330.696,163.792 L1330.696,154.352 L1334.696,154.352 L1334.696,163.824 C1334.696,164.933339 1334.92,165.754664 1335.368,166.288 C1335.816,166.821336 1336.52,167.088 1337.48,167.088 C1338.58934,167.088 1339.48,166.720004 1340.152,165.984 C1340.824,165.247996 1341.16,164.272006 1341.16,163.056 L1341.16,154.352 L1345.16,154.352 Z M1364.424,147.44 L1364.424,170 L1360.456,170 L1360.456,167.472 C1359.98666,168.346671 1359.30934,169.029331 1358.424,169.52 C1357.53866,170.010669 1356.53067,170.256 1355.4,170.256 C1354.05599,170.256 1352.85601,169.91467 1351.8,169.232 C1350.74399,168.54933 1349.92267,167.584006 1349.336,166.336 C1348.74933,165.087994 1348.456,163.653341 1348.456,162.032 C1348.456,160.410659 1348.74933,158.992006 1349.336,157.776 C1349.92267,156.559994 1350.73866,155.621337 1351.784,154.96 C1352.82934,154.298663 1354.03466,153.968 1355.4,153.968 C1356.53067,153.968 1357.53333,154.202664 1358.408,154.672 C1359.28267,155.141336 1359.95466,155.802662 1360.424,156.656 L1360.424,147.44 L1364.424,147.44 Z M1356.456,167.152 C1357.73601,167.152 1358.72266,166.714671 1359.416,165.84 C1360.10934,164.965329 1360.456,163.717341 1360.456,162.096 C1360.456,160.474659 1360.10934,159.232004 1359.416,158.368 C1358.72266,157.503996 1357.74667,157.072 1356.488,157.072 C1355.20799,157.072 1354.216,157.498662 1353.512,158.352 C1352.808,159.205338 1352.456,160.431992 1352.456,162.032 C1352.456,163.653341 1352.808,164.911996 1353.512,165.808 C1354.216,166.704004 1355.19733,167.152 1356.456,167.152 Z M1368.552,170 L1368.552,154.352 L1372.552,154.352 L1372.552,170 L1368.552,170 Z M1383.816,153.968 C1385.41601,153.968 1386.81866,154.298663 1388.024,154.96 C1389.22934,155.621337 1390.15733,156.565327 1390.808,157.792 C1391.45867,159.018673 1391.784,160.453325 1391.784,162.096 C1391.784,163.738675 1391.45867,165.17866 1390.808,166.416 C1390.15733,167.65334 1389.22934,168.602663 1388.024,169.264 C1386.81866,169.925337 1385.41601,170.256 1383.816,170.256 C1382.21599,170.256 1380.81334,169.925337 1379.608,169.264 C1378.40266,168.602663 1377.46934,167.65334 1376.808,166.416 C1376.14666,165.17866 1375.816,163.738675 1375.816,162.096 C1375.816,160.453325 1376.14666,159.018673 1376.808,157.792 C1377.46934,156.565327 1378.40266,155.621337 1379.608,154.96 C1380.81334,154.298663 1382.21599,153.968 1383.816,153.968 Z M1383.816,157.04 C1382.53599,157.04 1381.54934,157.471996 1380.856,158.336 C1380.16266,159.200004 1379.816,160.453325 1379.816,162.096 C1379.816,163.760008 1380.15733,165.018662 1380.84,165.872 C1381.52267,166.725338 1382.50399,167.152 1383.784,167.152 C1385.08534,167.152 1386.07733,166.725338 1386.76,165.872 C1387.44267,165.018662 1387.784,163.760008 1387.784,162.096 C1387.784,160.453325 1387.44267,159.200004 1386.76,158.336 C1386.07733,157.471996 1385.09601,157.04 1383.816,157.04 Z M1372.744,147.088 L1372.744,151.024 L1368.328,151.024 L1368.328,147.088 L1372.744,147.088 Z" id="Shape"></path>
                </g>
            </g>
        </g>
    </g>
</svg>