<?xml version="1.0" encoding="UTF-8"?>
<svg width="134px" height="12px" viewBox="0 0 134 12" version="1.1" xmlns="http://www.w3.org/2000/svg" xmlns:xlink="http://www.w3.org/1999/xlink">
    <!-- Generator: Sketch 59.1 (86144) - https://sketch.com -->
    <title>Path 2</title>
    <desc>Created with Sketch.</desc>
    <g id="Works" stroke="none" stroke-width="1" fill="none" fill-rule="evenodd">
        <g id="Desktop-XL" transform="translate(-640.000000, -293.000000)" fill="#2E3339" fill-rule="nonzero">
            <path d="M642.107459,296.593499 C645.028336,296.383709 646.802861,297.101231 649.633866,299.268248 L650.840282,300.212299 C654.715822,303.250056 657.43846,304.5 661.97224,304.5 C666.408667,304.5 668.830228,303.462792 672.623493,300.627628 L673.132389,300.243256 C676.762168,297.486746 678.743247,296.597353 682.776063,296.597353 C686.688841,296.597353 688.619355,297.44273 692.129442,300.059912 L692.385952,300.251232 C696.534106,303.343947 699.225036,304.5 704.337411,304.5 C709.251462,304.5 711.997212,303.474365 716.593726,300.590027 L717.084856,300.279363 C721.471237,297.487899 723.721448,296.597353 728.023205,296.597353 C732.17216,296.597353 734.126424,297.414138 737.459123,299.97711 L737.849909,300.280512 C741.824895,303.386642 744.297126,304.5 749.243292,304.5 C753.572324,304.5 755.822285,303.474976 758.828154,300.810121 L759.600012,300.113323 C762.926986,297.109328 765.52454,296.12425 771.889765,296.593297 C772.715952,296.654177 773.435063,296.033774 773.495944,295.207587 C773.556825,294.3814 772.936422,293.66229 772.110235,293.601409 C764.890991,293.06943 761.500807,294.3551 757.589527,297.886677 L757.098276,298.331983 C754.450986,300.729834 752.859014,301.5 749.243292,301.5 C745.213805,301.5 743.313598,300.700958 740.020267,298.167274 L739.633231,297.866731 C735.618229,294.729374 733.089415,293.597353 728.023205,293.597353 C723.180942,293.597353 720.466177,294.61368 715.907112,297.474756 L715.419507,297.783203 C710.993944,300.59962 708.714242,301.5 704.337411,301.5 C700.115996,301.5 697.991247,300.643858 694.519421,298.097815 L693.922689,297.654862 C689.942455,294.687131 687.453825,293.597353 682.776063,293.597353 C678.108046,293.597353 675.577213,294.670049 671.686837,297.576246 L671.16887,297.967381 C667.63859,300.648329 665.760588,301.5 661.97224,301.5 C658.360796,301.5 656.23268,300.578263 653.026605,298.111863 L651.799753,297.150899 C648.249587,294.377477 645.812675,293.319647 641.892541,293.601207 C641.066242,293.660555 640.444506,294.378513 640.503854,295.204812 C640.563202,296.031111 641.281161,296.652847 642.107459,296.593499 Z" id="Path-2"></path>
        </g>
    </g>
</svg>